<svg width="93" height="102" viewBox="0 0 93 102" fill="none" xmlns="http://www.w3.org/2000/svg">
<path d="M48.672 47.1361C49.6364 47.9462 49.2689 51.6611 48.5244 52.5049C47.6247 53.4738 45.8537 53.5388 44.673 53.5717C41.8457 53.7006 38.8932 53.2679 36.1269 52.6164C34.3241 52.2133 33.4213 50.9972 32.0837 49.9691C30.6527 48.8163 28.8512 49.2871 27.2674 49.8824C25.2489 50.6657 23.2269 49.0455 24.3735 46.9214C25.4891 44.8597 28.4083 43.7943 30.5834 43.8224C31.702 43.8207 32.9141 44.0063 33.7543 44.879C34.6566 45.7205 33.9431 46.5643 34.4415 47.4375C35.1892 48.7786 37.582 48.9936 38.9182 49.0229C41.2175 49.0196 43.5165 48.7978 45.6903 47.9831C46.3425 47.7325 48.1121 46.6999 48.6721 47.1985L48.672 47.1361Z" fill="#C3A00F"/>
<path d="M48.5238 52.5128C48.1515 52.9192 47.6237 53.1696 47.0646 53.3265C47.1886 53.139 47.2816 52.9828 47.3745 52.7642C47.4983 52.3895 47.4355 51.9838 47.2486 51.6095C47.2482 51.3598 47.0925 51.1103 46.8439 51.0795C46.5327 50.7678 46.1596 50.581 45.8177 50.5191C42.6165 49.9931 39.1395 52.0582 36.2469 50.0647C34.8473 49.0991 34.0684 47.6957 32.9483 46.6048C32.8237 46.4177 32.6681 46.2307 32.5125 46.0436C30.2101 43.9244 24.6814 45.3682 24.1888 48.5526C24.0328 48.0847 24.0941 47.5227 24.435 46.898C25.5506 44.8363 28.4698 43.7709 30.6449 43.799C31.7635 43.7973 32.9756 43.9829 33.8158 44.8556C34.7181 45.6971 34.0046 46.5409 34.503 47.4141C35.2507 48.7552 37.6435 48.9702 38.9797 48.9995C41.279 48.9962 43.578 48.7744 45.7519 47.9597C46.404 47.7091 48.1736 46.6765 48.7336 47.1751C49.698 47.9853 49.3305 51.7002 48.586 52.544L48.5238 52.5128Z" fill="#AF8E02"/>
<path d="M48.5237 52.5049C47.6241 53.4738 45.8531 53.5388 44.6724 53.5717C41.845 53.7006 38.8926 53.2679 36.1262 52.6164C35.0073 52.3683 34.2296 51.8076 33.483 51.1844C34.352 50.434 34.9095 49.2159 35.001 48.0297C36.0275 48.8085 37.7988 48.9621 38.8864 48.9917C41.1857 48.9884 43.4847 48.7666 45.6586 47.9519C46.3107 47.7013 48.0803 46.6687 48.6404 47.1673C49.6048 47.9775 49.2372 51.6923 48.4927 52.5362L48.5237 52.5049Z" fill="#A1A300"/>
<path d="M48.5244 52.5023C47.6247 53.4712 45.8537 53.5362 44.6731 53.5691C44.5177 53.5693 44.3623 53.5696 44.2381 53.5697C45.2938 53.1 47.1878 52.1297 46.2541 51.0698C45.0403 49.667 42.9285 50.4503 41.3754 50.7647C39.5427 51.1419 36.0618 50.5851 34.9095 48.7452C34.9713 48.4954 35.002 48.2768 35.0328 48.0271C36.0593 48.8059 37.8306 48.9594 38.9181 48.9891C41.2175 48.9858 43.5165 48.764 45.6903 47.9493C46.3425 47.6987 48.1121 46.6661 48.6721 47.1647C49.6365 47.9748 49.269 51.6897 48.5245 52.5335L48.5244 52.5023Z" fill="#808705"/>
<path opacity="0.72" d="M28.0073 46.2206C29.374 45.8753 30.493 46.1858 31.5817 46.9958C32.0794 47.4009 33.5411 48.2727 32.8897 49.0852C31.6147 48.3067 29.718 47.4043 28.1341 47.9684C27.544 48.1565 27.1408 48.6877 26.4885 48.8135C25.5876 48.9709 24.9967 48.5659 25.4304 47.6289C25.802 46.7856 27.1687 46.4403 28.0074 46.2518L28.0073 46.2206Z" fill="#E5B623"/>
<path opacity="0.43" d="M24.6248 49.1884C26.3969 49.9037 28.228 48.4029 30.0928 48.7435C33.2008 49.3009 34.7895 52.139 38.1769 52.4774C40.1347 52.6619 41.751 53.0965 43.3053 53.5625C40.9127 53.5347 38.4264 53.1638 36.1574 52.6052C34.3546 52.202 33.4518 50.986 32.1142 49.9579C30.6832 48.8051 28.8817 49.2759 27.2979 49.8712C26.0247 50.3725 24.719 49.8749 24.2515 48.908C24.376 49.0327 24.5004 49.1261 24.6558 49.1883L24.6248 49.1884Z" fill="#F7F75C"/>
<path d="M48.0496 46.1694C48.2994 47.0742 46.5625 49.2304 45.7238 49.4189C44.761 49.67 43.6414 48.9537 42.895 48.4865C41.0912 47.3655 39.4422 45.8696 37.9796 44.3423C37.046 43.3448 36.9511 42.1901 36.5765 40.9733C36.1397 39.6942 34.834 39.2279 33.6217 38.9175C32.0365 38.514 31.4435 36.7045 33.058 35.8594C34.5794 35.0457 36.8485 35.6043 38.1859 36.57C38.8702 37.0684 39.5546 37.6292 39.7424 38.5654C39.9301 39.439 39.1847 39.6586 39.1237 40.439C39.001 41.5629 40.4009 42.7157 41.2406 43.2451C42.6713 44.2107 44.195 45.0512 45.8735 45.4546C46.3708 45.5787 47.8935 45.6702 48.0496 46.2006L48.0496 46.1694Z" fill="#C3A00F"/>
<path d="M45.7229 49.4078C45.3191 49.502 44.9151 49.4402 44.4799 49.3159C44.6352 49.2533 44.7904 49.1906 44.9146 49.0968C45.1629 48.9092 45.2868 48.6281 45.2863 48.316C45.3793 48.1598 45.4101 47.9725 45.2856 47.8166C45.223 47.5045 45.0983 47.2238 44.8806 47.0368C43.1381 45.385 40.0928 45.2022 39.1261 42.7377C38.6583 41.5835 38.7498 40.3661 38.5307 39.2427C38.5304 39.0867 38.5301 38.8994 38.4677 38.7122C37.9052 36.4345 33.8949 35.0356 32.2196 36.8172C32.3434 36.4737 32.5914 36.13 33.0882 35.8796C34.6096 35.0658 36.8786 35.6244 38.2161 36.5901C38.9004 37.0885 39.5848 37.6493 39.7726 38.5855C39.9603 39.4592 39.2149 39.6787 39.1538 40.4591C39.0312 41.583 40.4311 42.7358 41.2708 43.2653C42.7015 44.2308 44.2252 45.0713 45.9037 45.4747C46.401 45.5988 47.9237 45.6903 48.0798 46.2207C48.3297 47.1255 46.5927 49.2817 45.7541 49.4702L45.7229 49.4078Z" fill="#AF8E02"/>
<path d="M45.7235 49.4188C44.7607 49.6699 43.6411 48.9536 42.8947 48.4865C41.0909 47.3654 39.4419 45.8696 37.9793 44.3422C37.4191 43.7188 37.1696 43.0325 36.9511 42.3461C37.821 42.2512 38.6591 41.7194 39.1864 41.0319C39.4984 41.9679 40.525 42.8091 41.2092 43.2451C42.6399 44.2107 44.1637 45.0512 45.8421 45.4546C46.3395 45.5787 47.8621 45.6702 48.0182 46.2006C48.2681 47.1054 46.5312 49.2616 45.6925 49.4501L45.7235 49.4188Z" fill="#A1A300"/>
<path d="M45.7238 49.4189C44.761 49.67 43.6414 48.9537 42.895 48.4865C42.8017 48.4555 42.7083 48.362 42.615 48.2997C43.4853 48.4857 45.0392 48.6707 44.9133 47.5785C44.7559 46.1741 43.1086 45.8019 42.0204 45.3665C40.7457 44.8065 38.7856 43.0302 38.8454 41.407C38.9695 41.282 39.1247 41.1569 39.2177 41.0007C39.5298 41.9367 40.5563 42.7779 41.2405 43.2139C42.6712 44.1795 44.195 45.02 45.8735 45.4234C46.3708 45.5475 47.8934 45.639 48.0496 46.1694C48.2994 47.0742 46.5625 49.2304 45.7238 49.4189Z" fill="#808705"/>
<path opacity="0.72" d="M35.5756 36.9774C36.6014 37.3193 37.1306 37.974 37.4738 38.9411C37.6298 39.4091 38.1907 40.5319 37.4142 40.7516C36.9778 39.7534 36.168 38.4124 34.9557 38.102C34.5206 37.9778 34.0547 38.1345 33.5883 37.9167C32.9665 37.6367 32.7793 37.1375 33.4312 36.7308C34.0211 36.3554 34.9848 36.7286 35.5755 36.9462L35.5756 36.9774Z" fill="#E5B623"/>
<path opacity="0.43" d="M32.2514 37.3821C33.061 38.567 34.8008 38.4084 35.8587 39.4057C37.5389 41.0264 37.356 43.4925 39.3158 45.0815C40.4668 46.0162 41.3072 46.9826 42.0542 47.8867C40.5923 46.8588 39.1923 45.6123 38.0097 44.3031C37.0761 43.3056 36.9812 42.1508 36.6066 40.9341C36.1697 39.655 34.8641 39.1887 33.6518 38.8783C32.6572 38.63 32.0656 37.8193 32.1577 37.0076C32.1578 37.1325 32.2202 37.2573 32.2824 37.3508L32.2514 37.3821Z" fill="#F7F75C"/>
<path d="M47.9969 52.7156C49.5509 52.9943 48.7476 56.2416 48.0341 57.0229C47.0724 58.0544 45.1143 57.6514 43.9027 57.8092C42.9086 57.9355 41.9763 57.8432 40.9818 57.751C39.2104 57.5351 37.3769 57.3192 35.6056 57.1969C33.7722 57.0747 32.2815 57.6075 30.7917 58.7333C29.8295 59.4526 27.2228 61.7973 26.8773 59.2071C26.6576 57.678 28.1454 55.1788 29.2004 54.1473C30.3484 53.0219 32.6153 52.0511 34.2004 52.3921C35.7235 52.7645 37.1227 53.4492 38.7077 53.6654C41.4426 54.0672 43.5249 54.4076 46.1334 53.3113C46.6613 53.0921 47.4374 52.5916 48.0279 52.7156L47.9969 52.7156Z" fill="#D8B212"/>
<path d="M34.0466 54.1047C32.9274 53.6694 31.6841 53.3903 30.5042 53.9538C28.9517 54.7363 27.8349 55.9865 27.1224 57.4857C27.5867 56.2053 28.4547 54.8619 29.1684 54.1742C30.3165 53.0489 32.5833 52.078 34.1685 52.4191C35.6915 52.7914 37.0908 53.4761 38.6757 53.6923C38.8622 53.692 39.0487 53.7542 39.2352 53.7851C37.7762 54.7548 35.9742 54.8823 34.0466 54.1047Z" fill="#B7970F"/>
<path opacity="0.72" d="M32.683 56.5459C32.1552 56.8901 31.3165 57.0473 30.944 57.2976C30.4473 57.6416 29.6721 58.7352 28.9886 58.7674C27.3418 58.7698 29.4516 56.613 29.855 56.2691C30.3204 55.8002 33.7049 54.1723 33.2104 55.9834C33.1175 56.2332 32.9313 56.4207 32.683 56.5772L32.683 56.5459Z" fill="#F4C134"/>
<path d="M48.0332 57.0119C47.0714 58.0433 45.1133 57.6403 43.9017 57.7981C42.9076 57.9244 41.9753 57.8321 40.9809 57.7399C39.2095 57.524 37.3759 57.3081 35.6046 57.1858C35.0142 57.1555 34.486 57.1874 33.958 57.313C35.0749 56.1566 35.8492 54.4387 35.7227 52.8783C36.6864 53.189 37.6501 53.531 38.7068 53.6855C41.4417 54.0873 43.524 54.4277 46.1325 53.3315C46.6604 53.1122 47.4364 52.6117 48.027 52.7357C49.581 53.0144 48.7778 56.2617 48.0643 57.043L48.0332 57.0119Z" fill="#AFAF08"/>
<path d="M48.0332 57.0128C47.692 57.3878 47.2261 57.5445 46.7291 57.6389C47.3189 57.2323 47.5978 56.7325 47.1618 56.0464C46.3212 54.8615 44.6438 55.2073 43.4323 55.4275C40.7607 55.8684 38.0877 55.2479 35.4768 54.6899C35.6624 54.0966 35.7547 53.441 35.7227 52.8167C36.6864 53.1275 37.6501 53.4694 38.7068 53.624C41.4417 54.0258 43.524 54.3661 46.1325 53.2699C46.6604 53.0507 47.4364 52.5502 48.027 52.6742C49.581 52.9528 48.7778 56.2002 48.0643 56.9815L48.0332 57.0128Z" fill="#88990A"/>
<path opacity="0.34" d="M27.0618 58.5113C27.7474 59.9149 29.331 59.1947 30.2934 58.569C33.8634 56.3166 36.7523 55.7506 40.8559 57.2429C41.5088 57.4916 42.1305 57.678 42.7211 57.8645C42.1308 57.8653 41.5714 57.8037 40.9809 57.7421C39.2095 57.5262 37.376 57.3103 35.6047 57.188C33.7713 57.0658 32.2806 57.5986 30.7908 58.7244C29.8286 59.4437 27.2219 61.7884 26.8764 59.1982C26.8759 58.8861 26.8754 58.5428 26.9681 58.1681C26.9682 58.2617 27.0306 58.3865 27.0929 58.5112L27.0618 58.5113Z" fill="#FFFB73"/>
<path d="M47.7763 51.0265C49.3611 51.0866 49.3252 47.7781 48.7956 46.8425C48.0792 45.595 46.0905 45.5666 44.9403 45.1313C44.0076 44.7581 43.0752 44.6346 42.0808 44.5112C40.3093 44.264 38.4758 44.0794 36.7043 43.801C34.9017 43.5227 33.5644 42.6506 32.3816 41.2165C31.6034 40.2813 29.6107 37.4438 28.651 39.8798C28.0627 41.3164 28.9988 44.0618 29.7463 45.278C30.6183 46.6501 32.578 48.1455 34.2248 48.1432C35.7473 48.141 37.2693 47.7954 38.8853 47.9492C41.651 48.1637 43.733 48.3168 46.0348 49.9989C46.5013 50.3104 47.1548 50.9961 47.7452 51.0265L47.7763 51.0265Z" fill="#D8B212"/>
<path opacity="0.34" d="M34.5327 46.4495C33.3212 46.6074 32.0473 46.6404 31.0517 45.7991C29.7451 44.6773 28.9351 43.2114 28.5599 41.5889C28.6862 42.9309 29.2477 44.4595 29.777 45.2703C30.649 46.6424 32.6087 48.1378 34.2555 48.1354C35.778 48.1333 37.3001 47.7877 38.916 47.9415C39.1025 47.9412 39.2889 47.9409 39.4753 47.9406C38.2617 46.6939 36.552 46.1345 34.5016 46.4184L34.5327 46.4495Z" fill="#FFFB73"/>
<path opacity="0.72" d="M33.721 43.778C33.2543 43.3417 32.508 42.9994 32.1968 42.6253C31.7922 42.1889 31.2622 40.9412 30.6405 40.7548C29.0242 40.3513 30.6126 42.9397 30.8929 43.4387C31.2355 43.9689 34.1596 46.3056 34.0948 44.4642C34.0945 44.2145 33.9388 43.9962 33.721 43.778Z" fill="#F4C134"/>
<path d="M48.7953 46.8352C48.0788 45.5877 46.0902 45.5594 44.9399 45.1241C44.0072 44.7508 43.0749 44.6273 42.0804 44.5039C40.3089 44.2568 38.4754 44.0721 36.7039 43.7938C36.1445 43.7009 35.616 43.5144 35.1186 43.2966C35.9905 44.6688 36.3039 46.5099 35.8711 48.0399C36.8653 47.9448 37.8905 47.8497 38.9471 47.9731C41.7128 48.1876 43.7949 48.3406 46.0966 50.0228C46.5632 50.3343 47.2166 51.02 47.8071 51.0504C49.3918 51.1105 49.356 47.802 48.8264 46.8664L48.7953 46.8352Z" fill="#AFAF08"/>
<path opacity="0.34" d="M48.7953 46.8425C48.5461 46.4059 48.1418 46.1255 47.6754 45.9077C48.1423 46.4377 48.3295 46.9992 47.7399 47.5307C46.6538 48.5311 45.0991 47.753 43.9488 47.2865C41.4304 46.2601 38.696 46.2016 35.9927 46.1118C36.0558 46.7984 35.9945 47.4228 35.8711 48.016C36.8653 47.9209 37.8905 47.8258 38.9471 47.9491C41.7128 48.1636 43.7949 48.3167 46.0966 49.9989C46.5632 50.3104 47.2166 50.9961 47.8071 51.0265C49.3918 51.0866 49.356 47.7781 48.8264 46.8425L48.7953 46.8425Z" fill="#FFFB73"/>
<path opacity="0.41" d="M28.6827 40.5516C29.6753 39.3329 31.0751 40.4233 31.853 41.2025C34.8092 44.2259 37.4831 45.4394 41.8635 44.9337C42.516 44.8703 43.1684 44.8069 43.7898 44.806C43.2303 44.6508 42.6398 44.5892 42.0494 44.5276C40.2779 44.2805 38.4444 44.0958 36.6729 43.8175C34.8704 43.5391 33.533 42.6671 32.3502 41.233C31.5721 40.2977 29.5794 37.4602 28.6196 39.8962C28.4958 40.1773 28.4652 40.5207 28.4657 40.8953C28.5277 40.8015 28.5897 40.6766 28.6517 40.5829L28.6827 40.5516Z" fill="#8C7929"/>
<path d="M10.8811 20.8344C6.5965 23.1191 4.8946 28.022 2.41496 32.2706C-1.24249 38.5496 1.71631 43.3834 3.21715 49.9047C4.24881 54.2731 6.09068 60.2633 9.41991 63.411C15.5493 69.1454 17.6773 57.9993 23.2432 60.8005C19.2412 65.176 15.8654 72.8593 14.414 79.0728C12.4375 87.4719 20.5872 93.6403 26.6517 97.4084C36.4479 103.387 46.7646 103.965 55.328 95.2758C57.3757 93.1816 58.5842 90.8389 59.388 88.0286C60.2227 85.0933 60.1246 81.6913 59.7785 78.6953C59.9985 80.4429 70.7809 80.7707 72.3343 80.5812C79.666 79.6967 88.2669 75.5642 91.457 68.4118C92.9126 65.1012 92.7838 61.9488 92.6858 58.578C92.3277 47.2482 83.1763 35.9623 72.5152 33.6054C66.734 32.334 58.8746 33.6251 54.4061 37.6892C60.522 34.0285 63.4946 26.8452 63.4846 19.8847C63.4138 13.8919 59.3613 4.78355 54.2917 1.38863C51.0571 -0.791616 46.3669 0.370023 42.9502 1.21769C33.6009 3.50971 22.1808 13.5143 25.2418 24.6217C24.3048 21.2209 17.5905 19.2953 14.6082 19.7366C13.1791 19.9259 11.999 20.3334 10.9434 20.8968L10.8811 20.8344Z" fill="url(#paint0_radial_4_1851)"/>
<path opacity="0.52" d="M23.1808 60.7129C17.6463 58.099 15.5181 69.0578 9.4198 63.3858C6.09057 60.2381 4.21764 54.2479 3.21705 49.8795C1.71624 43.3894 -1.24259 38.5244 2.41485 32.2453C4.89449 27.9968 6.5964 23.0939 10.881 20.8092C11.9367 20.2458 13.1168 19.8384 14.5459 19.649C16.1612 19.397 18.8341 19.8614 21.1349 20.8881C20.3283 21.7632 21.1399 24.3527 21.7009 25.5692C23.0411 28.4076 24.629 30.6839 26.2485 33.3035C23.3884 32.2463 16.8479 21.5185 13.5897 24.5508C12.7829 25.3011 13.2196 26.4866 12.6305 27.3614C12.4135 27.705 10.6132 29.0498 10.0549 29.7061C8.06953 31.9563 7.41838 32.8936 9.69004 35.2625C7.9823 36.1077 4.84557 37.1735 6.24758 39.7934C7.36913 41.8518 11.3457 41.4091 13.2426 42.4364C11.2859 43.001 9.26667 43.3473 7.99546 45.2531C11.1674 47.0277 15.2984 45.9605 18.7478 46.2364C22.6322 46.543 26.456 47.8796 29.9693 49.3728C26.1481 49.8777 22.5719 47.8228 18.8116 47.4224C17.2267 47.2687 15.7662 47.1459 14.2756 47.7723C13.7788 47.9915 10.5204 50.899 10.8312 50.961C15.5555 51.8594 5.86815 56.805 9.28951 59.2035C10.8136 60.2937 16.1535 57.2272 17.6439 56.4447C24.5055 52.8141 28.8232 51.8403 36.2525 54.0145C34.3892 54.7039 32.0883 53.6147 29.9143 54.3357C27.6781 55.0569 25.6916 56.5267 24.4826 58.4325C24.0485 59.0886 23.6146 59.8695 23.1498 60.7441L23.1808 60.7129Z" fill="#F9FF76"/>
<path opacity="0.52" d="M56.1572 23.8354C57.9552 20.9612 62.9122 10.8722 55.9583 15.1897C51.0843 18.1931 47.0836 23.4114 43.4235 27.8178C43.1697 24.2286 48.0718 19.1963 50.1184 16.2905C51.1416 14.822 55.0202 11.0397 54.4891 9.01161C53.9576 6.73382 52.0023 8.32849 50.2616 7.83159C50.7251 6.08299 51.4373 4.33404 51.9008 2.58544C49.6955 3.11924 47.4295 4.71437 45.9716 6.40197C44.7308 7.87077 43.7412 11.0871 41.6284 11.1838C41.9981 8.99836 42.7719 6.906 43.3902 4.68899C32.0496 5.20472 30.4157 14.134 30.5537 23.6538C27.6905 20.5054 29.1747 15.4779 29.2318 11.9508C29.2309 11.3265 29.1367 10.6088 29.0424 9.89099C32.6716 5.54716 38.0424 2.3245 42.8568 1.13148C46.2735 0.315016 50.9326 -0.877795 54.1983 1.30241C59.299 4.69728 63.3515 13.8369 63.3912 19.7985C63.3974 24.1059 62.2541 28.571 59.8978 32.1639C59.3697 32.227 58.8105 32.2591 58.2512 32.2599C53.9631 32.1412 50.6706 32.9575 46.9768 35.5535C50.5732 30.0548 58.8057 28.9505 60.8781 22.424C59.1055 21.3653 57.6162 22.8657 56.1261 23.8042L56.1572 23.8354Z" fill="#F9FF76"/>
<path opacity="0.52" d="M92.6545 58.4889C92.7526 61.8597 92.8814 65.0121 91.4258 68.3227C90.4966 70.3841 89.132 72.1652 87.5185 73.7282C84.9389 73.2949 82.4209 72.4558 80.4 71.616C82.2327 71.2076 84.5006 70.9858 86.395 70.3276C84.0011 69.3322 82.0736 68.6795 80.0206 67.0906C82.0398 66.7444 90.2448 68.1059 89.742 64.205C89.1205 64.2059 88.4053 63.8012 87.7529 63.8334C88.8085 63.27 88.7145 62.7395 89.2414 61.8024C87.998 61.4608 86.7865 61.6498 85.5429 61.1522C86.7539 60.6511 87.84 59.6195 87.9312 58.2148C84.1711 57.9393 81.2838 59.6289 77.4607 58.7292C73.1713 57.7366 69.0987 56.1818 64.9019 54.7833C68.85 56.1198 73.2613 55.4579 77.301 55.7018C79.9112 55.8541 84.7277 56.0969 85.4995 52.6311C86.3023 49.0717 81.1104 47.1128 78.6233 46.1799C79.679 45.6478 81.0772 45.6146 82.2265 45.332C76.5059 42.9993 70.0413 41.8849 63.9202 41.9249C66.9015 40.8282 68.672 40.4199 71.7483 40.5403C74.3274 40.6302 79.8295 42.2454 81.8479 41.3685C79.6037 36.4713 71.5216 34.142 65.6786 33.0891C68.0397 32.8672 70.4325 33.0199 72.515 33.4851C83.2071 35.8419 92.3274 47.1278 92.6855 58.4576L92.6545 58.4889Z" fill="#F9FF76"/>
<path opacity="0.52" d="M26.6826 97.3074C23.1683 95.1587 18.9693 92.1371 16.4159 88.364C17.3146 86.6772 18.4621 85.1461 19.5786 83.7087C20.7929 85.4861 20.6109 88.5141 22.1043 89.8541C23.3696 83.8594 24.0445 77.8343 28.7913 72.8334C27.0567 76.6126 26.1932 81.1398 26.1059 85.26C26.1072 86.134 26.5888 96.9017 27.8306 96.2133C30.5007 94.7112 29.4655 87.9395 32.5694 85.594C31.3945 89.6534 29.1394 98.7708 34.8577 99.5117C37.9344 99.9131 38.583 97.2278 40.7578 97.0374C42.0937 96.9106 42.7169 98.127 44.1764 97.5319C45.1702 97.1559 46.0379 95.594 46.5027 94.7194C47.2831 97.2153 50.4816 95.8685 51.3491 94.1193C52.4335 91.9329 50.8464 90.2497 49.7874 88.5033C47.1711 84.1684 45.6742 80.3626 45.5425 75.2438C48.5319 79.7654 52.8597 85.8145 54.5449 90.931C57.4881 84.9027 53.3771 78.3539 50.5731 73.1141C47.8315 68.0616 45.3998 62.4467 40.9826 58.9884C47.6015 59.3847 52.6457 66.7125 55.4188 72.0771C58.005 77.0987 59.0695 82.6843 59.3573 88.3022C58.5532 90.9252 57.3756 93.1431 55.421 95.1435C46.8576 103.833 36.541 103.286 26.7447 97.2761L26.6826 97.3074Z" fill="#F9FF76"/>
<path d="M72.4839 33.5235C77.3948 34.5776 81.9356 37.5675 85.5147 41.5889C83.1195 39.7819 72.2705 36.3329 69.4423 35.9C59.9943 34.4154 55.5917 41.0701 53.7001 43.7259C52.9559 44.7883 51.3134 47.7871 49.6336 46.4473C48.5448 45.5749 49.2575 44.2005 49.8465 43.2633C51.7688 40.3577 54.5934 38.3248 56.8891 35.8245C61.4218 33.196 67.6662 32.4379 72.4839 33.5235Z" fill="#F9FF76"/>
<path d="M45.7165 66.6044C45.969 69.3195 46.2526 72.0971 46.2876 74.8126C46.2845 72.6901 44.8507 69.5396 44.2883 67.418C43.8822 65.8891 43.0059 61.5206 41.1412 61.2111C36.5102 60.375 36.1557 73.0792 35.7865 75.6704C35.3862 78.1993 35.3903 81.0084 34.648 83.4129C33.899 81.1354 33.5534 78.4516 33.7053 76.048C33.7354 75.3925 34.658 68.8052 35.0931 68.8358C33.3528 68.6198 31.5892 73.8661 31.0939 75.1778C31.0889 71.6819 33.3819 67.3088 34.6512 64.0608C35.8276 61.0315 36.724 57.784 40.3897 57.2169C44.3349 56.587 48.8437 58.9215 51.5198 61.6644C56.3742 66.6515 58.3724 73.2657 61.0535 79.5045C60.3075 79.287 59.7788 78.9757 59.7783 78.6323C60.1244 81.6283 60.2226 85.0304 59.3878 87.9656C58.584 90.7759 57.3756 93.1186 55.3278 95.2128C50.8911 99.7451 45.9225 101.75 40.8267 101.788C44.1824 101.752 57.9687 95.0218 57.0168 81.2894C56.0344 68.0253 45.3347 60.4247 45.3653 60.0502C45.3684 62.2351 45.4958 64.3886 45.6854 66.6044L45.7165 66.6044Z" fill="#F9FF76"/>
<path d="M12.8979 61.9123C15.5083 62.1894 20.2886 58.8428 22.5549 57.4973C24.4177 56.4334 25.6268 54.5901 27.5206 53.4637C24.7225 52.3753 20.9329 53.1299 17.9189 53.1342C21.0237 51.5067 24.4409 50.9711 27.9525 51.3406C29.2888 51.4635 31.6825 52.2404 32.8938 51.9265C36.4968 50.985 28.2263 47.2513 27.2315 46.9406C21.325 44.9203 15.2639 43.4932 10.2248 39.6925C12.9605 40.6874 15.8202 41.4011 18.6174 41.9277C20.4822 42.2996 22.4401 42.5153 24.274 43.012C25.6728 43.3846 26.886 44.3504 28.2846 44.5669C27.8152 42.289 25.8857 40.2006 24.9194 38.0795C26.6626 40.2306 28.4363 42.0072 30.6759 43.6895C33.3198 45.6521 45.5081 51.3153 39.6104 55.4127C37.6548 56.7577 35.2317 57.1045 32.9637 57.3263C29.2357 57.7686 26.0363 58.4287 22.9634 60.6805C17.5846 58.3785 15.4249 69.0252 9.41996 63.4155C7.73983 61.8573 5.90286 59.2693 5.52672 56.9912C5.58927 57.2721 7.17987 61.3899 12.898 61.9747L12.8979 61.9123Z" fill="#F9FF76"/>
<path d="M28.9256 36.6056C28.8588 33.3908 28.5769 31.8305 26.8015 28.8679C25.3688 26.4977 25.1483 24.4068 25.0858 24.1884C23.9606 19.5705 25.2903 15.1675 27.895 11.4494C27.123 14.7591 26.3855 20.4722 27.4473 24.185C28.3218 27.2738 30.1897 29.7994 30.9709 32.8571C31.596 35.3533 32.3475 39.3787 35.4553 39.8424C34.0836 36.6606 33.7367 33.1341 33.6696 29.6695C33.6022 25.9865 33.5054 23.552 31.7603 20.0274C34.9311 21.0529 35.5619 27.5443 35.8143 30.197C36.2236 33.942 35.7629 37.6882 38.9054 40.6177C40.0843 39.3051 40.8269 37.1191 41.2906 35.4641C41.6343 36.8058 40.7664 38.3053 41.1722 39.5532C41.9834 41.9242 46.5146 38.2346 48.0672 37.5144C51.4207 35.949 54.9927 35.0699 58.5334 34.0035C57.944 34.6911 57.3235 35.3474 56.6407 35.9102C54.3125 37.4118 52.2031 39.8495 50.6217 42.0991C49.0713 44.3174 48.7334 47.0334 47.2453 49.3766C45.0132 52.9068 38.7634 49.8882 36.1821 48.2688C32.4501 45.902 28.9943 41.1938 28.8946 36.6369L28.9256 36.6056Z" fill="#E2B705"/>
<path d="M14.9829 85.7481C14.141 83.6893 13.8271 81.4424 14.4139 79.0069C15.8654 72.8246 19.2411 65.1102 23.2431 60.7346C24.9485 58.2975 26.6855 56.1413 28.9524 55.2329C32.3683 53.8546 38.3984 55.3441 42.1893 55.3699C45.5139 55.3651 44.8002 55.9904 46.7849 53.3032C48.6456 50.8035 48.2364 47.0897 50.0663 44.8086C52.1134 42.2462 57.395 41.8328 60.3776 41.6412C58.4209 42.2059 54.6015 43.8656 53.703 45.6773C61.5414 51.4404 70.6385 46.5893 78.9373 48.3877C77.3521 48.0466 72.4769 50.1449 70.613 50.491C68.4697 50.8998 66.6373 51.4955 64.4621 51.3738C61.914 51.2526 56.0697 49.3258 54.6762 52.6052C56.2006 53.9139 58.78 54.1911 60.6455 55C58.4101 56.2517 56.2021 54.9439 53.8086 54.3231C55.5255 59.7829 64.913 62.4537 69.576 63.9765C66.0632 62.8266 62.6458 63.1437 59.101 61.3384C56.2713 59.8755 53.3478 57.9445 50.2396 57.2623C50.6796 60.6951 53.7601 63.7495 55.6905 66.4935C57.87 69.6117 60.5153 72.5107 64.1217 73.9101C70.1841 76.3047 77.2109 79.4159 86.5566 74.5644C82.553 77.8788 77.1804 79.8529 72.3341 80.4529C70.7808 80.6425 59.9673 80.3147 59.7783 78.567C59.8727 79.4096 56.316 69.3018 52.2071 64.1575C49.3433 60.6034 44.3036 56.3657 39.3332 57.1532C37.4072 57.4368 36.0732 58.9058 35.1123 60.5614C34.5543 61.4674 32.6341 65.8088 33.2258 66.7443C32.1359 65.0916 31.8827 61.8146 32.2527 59.8789C26.4495 64.9125 23.7291 74.53 21.3164 82.1183C19.8459 75.1287 23.0379 69.2873 25.5766 62.9162C20.797 66.6686 17.9448 71.1674 16.0888 76.9444C15.1917 79.7237 15.1961 82.7514 14.9829 85.7481Z" fill="#E2B705"/>
<path d="M42.1893 55.4451C42.9972 55.4751 43.8049 55.3491 44.3633 54.7865C44.7978 54.3801 45.2314 53.4118 45.6035 52.8807C46.4097 51.7246 47.0604 50.4752 47.8666 49.2879C48.5486 48.2257 48.7335 47.133 49.3534 46.1021C50.5935 44.1339 53.2947 42.7566 55.5943 42.9406C53.9804 44.2226 51.2792 45.5999 50.9095 47.8478C51.8736 48.4082 52.8671 47.8449 53.8933 48.4053C52.9923 48.469 51.7195 49.2824 51.0991 50.0012C49.8893 51.3763 50.7286 51.6248 51.7552 52.4973C53.5285 54.0554 54.4023 56.6448 56.0824 58.203C54.527 56.9255 52.1006 55.025 50.0806 54.7782C46.258 54.2531 48.844 59.181 50.0579 60.5839C46.9791 58.778 43.9008 57.253 40.2652 57.1021C40.5446 56.9457 40.4822 56.7585 40.6683 56.5397C38.9273 55.8243 37.0622 55.2964 35.2902 54.6747C36.6581 55.1721 38.9262 55.0752 40.4179 55.2603C40.9462 55.322 41.5678 55.4148 42.1582 55.4451L42.1893 55.4451Z" fill="#CEA90F"/>
<path d="M49.5758 48.7738C49.9815 49.9593 47.7486 52.959 46.6616 53.2727C45.4192 53.6178 43.8644 52.7773 42.8382 52.217C40.3504 50.816 38.0484 48.9153 36.0258 46.8894C34.7189 45.5803 34.5614 44.1447 33.9687 42.4913C33.3448 40.7755 31.5419 40.2474 29.8946 39.9377C27.7811 39.535 26.8455 37.1329 28.9566 35.8813C30.9746 34.7236 33.9895 35.3435 35.8554 36.4957C36.7885 37.0874 37.7217 37.8664 38.0342 39.052C38.3466 40.2376 37.3217 40.5512 37.2921 41.5813C37.2321 43.1108 39.1296 44.5439 40.2802 45.2289C42.2395 46.4434 44.3538 47.4392 46.6227 47.8729C47.3065 47.9968 49.3262 48.0563 49.5758 48.7426L49.5758 48.7738Z" fill="#C3A00F"/>
<path d="M46.6616 53.264C46.1336 53.4208 45.5742 53.3592 45.0146 53.1727C45.201 53.11 45.3873 53.0161 45.5424 52.8598C45.8838 52.5784 46.0075 52.2037 46.038 51.7979C46.162 51.5792 46.1616 51.2983 45.9749 51.1113C45.8811 50.7056 45.6631 50.3626 45.3831 50.1133C42.9254 48.0256 38.8549 47.969 37.4209 44.6937C36.735 43.134 36.7638 41.5734 36.3888 40.0445C36.3884 39.7948 36.3881 39.5763 36.2945 39.3267C35.4202 36.3003 29.9491 34.6539 27.8708 37.0915C27.9944 36.6231 28.3355 36.1544 28.9565 35.8102C30.9745 34.6524 33.9894 35.2723 35.8553 36.4245C36.7884 37.0162 37.7216 37.7952 38.0341 38.9808C38.3465 40.1665 37.3216 40.4801 37.292 41.5102C37.232 43.0397 39.1295 44.4728 40.2801 45.1578C42.2394 46.3723 44.3537 47.368 46.6226 47.8017C47.3064 47.9256 49.3261 47.9851 49.5757 48.6715C49.9813 49.857 47.7485 52.8566 46.6614 53.1703L46.6616 53.264Z" fill="#AF8E02"/>
<path d="M46.6606 53.2727C45.4183 53.6179 43.8634 52.7774 42.8373 52.217C40.3495 50.816 38.0475 48.9153 36.0249 46.8894C35.2469 46.1102 34.8417 45.2368 34.5607 44.2696C35.7101 44.0807 36.7655 43.3613 37.4787 42.3614C37.9466 43.6093 39.3774 44.6372 40.3104 45.2289C42.2697 46.4434 44.384 47.4392 46.6529 47.8729C47.3366 47.9968 49.3564 48.0563 49.6059 48.7426C50.0116 49.9281 47.7787 52.9278 46.6917 53.2415L46.6606 53.2727Z" fill="#A1A300"/>
<path d="M46.6606 53.2727C45.4183 53.6179 43.8634 52.7774 42.8373 52.217C42.7129 52.1548 42.5884 52.0301 42.4641 51.9678C43.6451 52.1534 45.7271 52.3065 45.5075 50.871C45.2252 49.0298 42.9563 48.5649 41.4641 48.0677C39.7232 47.4459 37.0166 45.14 36.9824 42.9552C37.1375 42.7677 37.3237 42.5801 37.4787 42.3926C37.9466 43.6405 39.3774 44.6684 40.3104 45.2601C42.2697 46.4746 44.384 47.4704 46.6529 47.9041C47.3367 48.028 49.3564 48.0875 49.606 48.7738C50.0116 49.9593 47.7788 52.959 46.6917 53.2727L46.6606 53.2727Z" fill="#808705"/>
<path opacity="0.72" d="M32.3755 37.2077C33.7432 37.6427 34.5212 38.4843 35.0202 39.7321C35.2386 40.3561 36.0175 41.822 35.0548 42.1667C34.3382 40.8568 33.2171 39.1105 31.6009 38.7382C31.0103 38.6142 30.3892 38.8336 29.7985 38.5848C28.959 38.2426 28.6784 37.5876 29.4855 37.0246C30.2304 36.4617 31.5983 36.9591 32.4065 37.1764L32.3755 37.2077Z" fill="#E5B623"/>
<path opacity="0.43" d="M27.9955 37.9537C29.1163 39.5127 31.4462 39.1348 32.9084 40.4437C35.2418 42.5316 35.1533 45.8091 37.8595 47.834C39.4459 49.0178 40.5973 50.2647 41.6555 51.4805C39.6029 50.1725 37.7363 48.5833 35.9938 46.9003C34.6869 45.5913 34.5295 44.1557 33.9367 42.5023C33.3128 40.7864 31.5099 40.2584 29.8626 39.9486C28.5261 39.6696 27.6546 38.6097 27.7463 37.5483C27.7775 37.6731 27.8399 37.8291 27.9644 37.985L27.9955 37.9537Z" fill="#F7F75C"/>
<path d="M49.512 47.6037C49.2958 48.5092 46.656 49.4182 45.8478 49.2008C44.9463 48.89 44.3231 47.6736 43.918 46.8939C42.9521 45.0225 42.2965 42.8697 41.8895 40.7478C41.6079 39.4061 42.1348 38.4377 42.4437 37.1887C42.7525 35.8461 41.8809 34.7861 40.9785 33.8823C39.8583 32.729 40.2906 30.8556 42.093 30.9779C43.8021 31.1002 45.4824 32.7521 46.1059 34.2494C46.4489 35.0293 46.6987 35.9029 46.4203 36.746C46.0797 37.6205 45.3337 37.4031 44.8995 37.9655C44.2173 38.9341 44.81 40.5875 45.2153 41.5234C45.9322 43.083 46.8044 44.5799 48.049 45.7954C48.4224 46.1695 49.6666 47.0416 49.512 47.6037Z" fill="#C3A00F"/>
<path d="M45.8476 49.2081C45.4745 49.0838 45.1323 48.8033 44.8522 48.4604C45.0075 48.4602 45.1629 48.46 45.3494 48.4597C45.629 48.4281 45.9083 48.2404 46.0633 47.9905C46.2496 47.8966 46.3737 47.7403 46.3113 47.5531C46.4352 47.272 46.4347 46.9599 46.3721 46.6791C45.7474 44.3702 43.228 42.6259 43.6903 40.0033C43.906 38.7545 44.5883 37.7859 44.9906 36.6617C45.0525 36.5055 45.1455 36.3805 45.2074 36.162C45.9189 33.976 43.2108 30.6401 40.8813 31.2678C41.1606 31.0176 41.5644 30.9234 42.0616 30.9539C43.7707 31.0763 45.451 32.7282 46.0746 34.2255C46.4175 35.0053 46.6673 35.8789 46.3889 36.7221C46.0484 37.5966 45.3023 37.3791 44.8681 37.9416C44.1859 38.9102 44.7787 40.5636 45.184 41.4994C45.9009 43.059 46.773 44.556 48.0176 45.7715C48.391 46.1455 49.6352 47.0177 49.4806 47.5798C49.2644 48.4853 46.6246 49.3942 45.8164 49.1769L45.8476 49.2081Z" fill="#AF8E02"/>
<path d="M45.8469 49.2082C44.9454 48.8973 44.3222 47.6809 43.9171 46.9012C42.9512 45.0298 42.2956 42.877 41.8886 40.7551C41.701 39.9439 41.8864 39.2257 42.0719 38.5388C42.8492 38.881 43.8124 38.8796 44.6819 38.535C44.4347 39.503 44.8715 40.7508 45.2455 41.4994C45.9624 43.059 46.8345 44.556 48.0792 45.7715C48.4526 46.1455 49.6967 47.0177 49.5422 47.5798C49.326 48.4853 46.6862 49.3942 45.878 49.1769L45.8469 49.2082Z" fill="#A1A300"/>
<path d="M45.8469 49.2009C44.9454 48.89 44.3222 47.6736 43.9171 46.8939C43.917 46.8003 43.8547 46.7067 43.7613 46.6132C44.4458 47.2053 45.659 48.1711 46.1237 47.2029C46.7122 45.9535 45.4987 44.7379 44.7826 43.7714C43.9732 42.6801 43.2237 40.0905 44.1229 38.747C44.3092 38.6843 44.4956 38.6528 44.6819 38.5589C44.4347 39.5269 44.8715 40.7748 45.2455 41.5234C45.9624 43.083 46.8345 44.5799 48.0792 45.7954C48.4526 46.1695 49.6967 47.0416 49.5422 47.6037C49.326 48.5092 46.6862 49.4182 45.878 49.2008L45.8469 49.2009Z" fill="#808705"/>
<path opacity="0.72" d="M43.6489 33.2639C44.3027 34.1057 44.4903 34.9482 44.2431 35.9473C44.1195 36.4157 43.997 37.6644 43.251 37.4782C43.3427 36.3856 43.3715 34.8249 42.5002 33.921C42.189 33.5781 41.7227 33.4539 41.4425 33.0486C41.0689 32.5185 41.1613 31.9565 41.907 31.9554C42.6217 31.9544 43.2132 32.7651 43.649 33.2951L43.6489 33.2639Z" fill="#E5B623"/>
<path opacity="0.43" d="M40.633 31.8919C40.6661 33.3277 42.283 34.1057 42.6268 35.4785C43.2204 37.7875 41.794 39.7559 42.6364 42.1581C43.1045 43.562 43.3548 44.8102 43.4808 45.9961C42.7638 44.3428 42.233 42.5332 41.8576 40.7859C41.576 39.4441 42.1029 38.4757 42.4118 37.2268C42.7206 35.8842 41.849 34.8242 40.9466 33.9203C40.2309 33.1722 40.1362 32.1423 40.6636 31.5485C40.6326 31.6422 40.6017 31.7671 40.633 31.9231L40.633 31.8919Z" fill="#F7F75C"/>
<path d="M46.1013 53.1914C47.2525 54.251 44.9565 56.5953 43.9005 56.8777C42.5339 57.2543 41.0715 55.883 39.9833 55.3851C39.0505 54.9807 38.2729 54.42 37.4952 53.7969C36.0954 52.6752 34.6333 51.5224 33.1715 50.4945C31.6474 49.4355 30.0933 49.0944 28.2604 49.2843C27.0487 49.4109 23.6628 50.04 24.6848 47.6664C25.3042 46.2609 27.8501 44.9151 29.279 44.6009C30.8631 44.224 33.2873 44.5951 34.4696 45.7171C35.5898 46.8079 36.3995 48.1177 37.6439 49.1459C39.7904 50.8908 41.4081 52.293 44.1741 52.726C44.7336 52.8188 45.6657 52.7863 46.1013 53.1914Z" fill="#D8B212"/>
<path d="M33.4772 47.091C32.7301 46.1245 31.8588 45.2206 30.5536 45.1288C28.8444 44.9752 27.1983 45.477 25.8014 46.353C26.8566 45.5087 28.316 44.8199 29.2789 44.6001C30.863 44.2232 33.2872 44.5943 34.4695 45.7162C35.5897 46.8071 36.3994 48.1169 37.6438 49.1451C37.7683 49.2698 37.9237 49.3632 38.0482 49.4879C36.3083 49.5528 34.7225 48.7435 33.4461 47.0911L33.4772 47.091Z" fill="#B7970F"/>
<path opacity="0.72" d="M31.0555 48.4441C30.4341 48.445 29.6258 48.1652 29.1598 48.1971C28.5694 48.198 27.3273 48.7304 26.7365 48.4191C25.306 47.5784 28.2567 46.825 28.7848 46.6994C29.406 46.5737 33.1352 46.9429 31.7699 48.2246C31.5837 48.4121 31.3352 48.4437 31.0245 48.4441L31.0555 48.4441Z" fill="#F4C134"/>
<path d="M43.9005 56.8777C42.5339 57.2543 41.0715 55.883 39.9833 55.3851C39.0505 54.9807 38.2729 54.42 37.4952 53.7969C36.0954 52.6752 34.6333 51.5224 33.1715 50.4945C32.6738 50.1519 32.2074 49.9029 31.6789 49.7163C33.263 49.3395 34.7529 48.2761 35.5277 46.8392C36.1813 47.6186 36.8039 48.4292 37.6438 49.1147C39.7903 50.8595 41.4081 52.2618 44.1741 52.6948C44.7335 52.7876 45.6656 52.7551 46.1012 53.1602C47.2524 54.2198 44.9565 56.5641 43.9004 56.8465L43.9005 56.8777Z" fill="#AFAF08"/>
<path d="M43.9005 56.8867C43.4035 57.0435 42.9373 56.9506 42.4399 56.764C43.1856 56.7629 43.6823 56.4189 43.619 55.6386C43.5547 54.1717 41.9071 53.6123 40.7568 53.1457C38.2384 52.0881 36.2471 50.187 34.318 48.3794C34.8146 47.9417 35.2178 47.4417 35.5277 46.9107C36.1814 47.69 36.804 48.5007 37.6439 49.1862C39.7904 50.931 41.4081 52.3332 44.1742 52.7662C44.7336 52.8591 45.6657 52.8265 46.1013 53.2317C47.2525 54.2912 44.9565 56.6355 43.9005 56.918L43.9005 56.8867Z" fill="#88990A"/>
<path opacity="0.34" d="M25.2122 47.1725C25.0591 48.7333 26.8305 48.9493 27.949 48.9164C32.1747 48.8479 34.9106 49.874 37.6809 53.3347C38.1167 53.8647 38.5214 54.3635 38.957 54.8311C38.4905 54.5196 38.0239 54.1769 37.5573 53.803C36.1575 52.6814 34.6954 51.5286 33.2336 50.5007C31.7095 49.4416 30.1554 49.1005 28.3225 49.2905C27.1108 49.4171 23.7249 50.0462 24.7468 47.6725C24.8707 47.3914 25.0878 47.1102 25.336 46.8289C25.274 46.9227 25.2431 47.0476 25.2433 47.1724L25.2122 47.1725Z" fill="#FFFB73"/>
<path d="M46.7826 51.6542C48.1199 52.5263 49.7626 49.6835 49.8232 48.6222C49.8523 47.2176 48.1418 46.1276 47.4257 45.161C46.8032 44.3816 46.0876 43.7584 45.2788 43.1353C43.879 42.0136 42.417 40.8921 41.0481 39.7079C39.6482 38.5239 38.9935 37.0578 38.7113 35.2478C38.5232 34.062 38.3006 30.5665 36.2522 32.1613C35.0106 33.0995 34.3622 35.9096 34.3643 37.3766C34.3977 38.9996 35.3332 41.308 36.7015 42.1488C38.0077 42.9585 39.4999 43.4557 40.8063 44.4214C43.0148 46.0725 44.7566 47.3186 45.8479 49.9077C46.0661 50.438 46.2539 51.3429 46.7515 51.6543L46.7826 51.6542Z" fill="#D8B212"/>
<path opacity="0.34" d="M37.8182 40.8138C36.6989 40.3472 35.6415 39.6932 35.2047 38.4453C34.6431 36.8231 34.7339 35.1374 35.2598 33.5448C34.7022 34.7629 34.3938 36.3552 34.3952 37.3228C34.4286 38.9459 35.3641 41.2543 36.7325 42.0951C38.0387 42.9047 39.5308 43.402 40.8373 44.3677C40.9928 44.4923 41.1172 44.5858 41.2727 44.6792C40.8974 42.963 39.7457 41.5913 37.8181 40.7825L37.8182 40.8138Z" fill="#FFFB73"/>
<path opacity="0.72" d="M38.529 38.1558C38.3727 37.5318 37.9056 36.8145 37.8429 36.3777C37.7177 35.7848 37.9022 34.4424 37.4355 33.9748C36.2841 32.7592 36.2884 35.7868 36.2893 36.3799C36.2902 37.0041 37.5692 40.5606 38.499 38.905C38.623 38.6863 38.5916 38.4366 38.529 38.1558Z" fill="#F4C134"/>
<path d="M49.8232 48.6222C49.8523 47.2176 48.1418 46.1276 47.4257 45.161C46.8032 44.3816 46.0876 43.7584 45.2788 43.1353C43.879 42.0136 42.417 40.8921 41.0481 39.7079C40.6126 39.334 40.2702 38.9287 39.9588 38.461C39.9612 40.1153 39.3111 41.8329 38.1319 42.8959C39.0336 43.3315 39.9664 43.7672 40.8063 44.4214C43.0148 46.0725 44.7566 47.3186 45.8479 49.9077C46.0661 50.438 46.2539 51.3429 46.7515 51.6543C48.0888 52.5263 49.7315 49.6836 49.7922 48.6223L49.8232 48.6222Z" fill="#AFAF08"/>
<path opacity="0.34" d="M49.8233 48.6222C49.8226 48.1228 49.6355 47.6549 49.3242 47.2495C49.4495 47.9673 49.326 48.4981 48.5183 48.6553C47.0894 48.9383 46.1551 47.4726 45.408 46.4749C43.7891 44.2923 41.4877 42.8598 39.2484 41.3648C38.9695 41.927 38.5974 42.4582 38.132 42.8959C39.0337 43.3315 39.9665 43.7672 40.8064 44.4214C43.0149 46.0725 44.7567 47.3186 45.8479 49.9077C46.0662 50.438 46.2539 51.3429 46.7515 51.6543C48.0889 52.5263 49.7316 49.6836 49.7922 48.6223L49.8233 48.6222Z" fill="#FFFB73"/>
<path opacity="0.41" d="M35.9113 32.7459C37.3709 32.2132 37.9947 33.8978 38.2448 34.9586C39.214 39.1086 40.8643 41.5096 44.8753 43.3766C45.4972 43.6878 46.0879 43.9367 46.6166 44.248C46.181 43.8429 45.7454 43.469 45.2789 43.1263C43.879 42.0047 42.417 40.8831 41.0481 39.699C39.6482 38.5149 38.9936 37.0488 38.7113 35.2389C38.5232 34.0531 38.3007 30.5575 36.2522 32.1523C36.0039 32.34 35.7868 32.6524 35.5697 32.9336C35.6939 32.871 35.7871 32.8085 35.9113 32.7459Z" fill="#8C7929"/>
<defs>
<radialGradient id="paint0_radial_4_1851" cx="0" cy="0" r="1" gradientUnits="userSpaceOnUse" gradientTransform="translate(46.5867 51.8775) rotate(108.529) scale(49.3872 49.2096)">
<stop stop-color="#FFBC00"/>
<stop offset="0.07" stop-color="#FCC000"/>
<stop offset="0.34" stop-color="#F6D000"/>
<stop offset="0.55" stop-color="#F4D600"/>
<stop offset="1" stop-color="#FFF75A"/>
</radialGradient>
</defs>
</svg>
