<svg width="193" height="164" viewBox="0 0 193 164" fill="none" xmlns="http://www.w3.org/2000/svg">
<mask id="mask0_4_5777" style="mask-type:luminance" maskUnits="userSpaceOnUse" x="75" y="62" width="85" height="74">
<path d="M159.067 135.771C150.374 98.6222 110.488 78.7319 75.9061 62.8556C108.036 80.354 153.431 96.5966 159.933 134.033C159.837 134.464 159.548 135.757 159.067 135.771Z" fill="white"/>
</mask>
<g mask="url(#mask0_4_5777)">
<path d="M198.901 116.248L156.383 162.733C156.383 162.733 151.665 159.018 144.102 153.088C134.424 146.111 125.979 138.468 120.602 128.779C106.427 103.171 84.0047 80.1998 55.5464 70.9592C51.4296 69.7454 47.1545 68.979 42.7039 68.7782C45.9699 67.5569 49.0945 66.1298 52.0551 64.5352C55.0158 62.9405 57.8039 61.1483 60.4083 59.1775C65.7415 55.3815 69.0843 50.3281 73.4138 45.3378C75.1163 42.7136 76.5644 39.8973 77.7636 36.9683C78.943 34.0284 79.8256 30.9237 80.4395 27.6954C81.4937 31.569 83.1701 35.2779 85.1998 38.6986C104.709 67.4206 139.459 81.2737 170.147 95.9581C176.195 98.5749 181.032 101.999 185.675 106.334C193.111 112.168 198.921 116.259 198.921 116.259L198.901 116.248Z" fill="#19572B"/>
</g>
<mask id="mask1_4_5777" style="mask-type:luminance" maskUnits="userSpaceOnUse" x="25" y="21" width="131" height="117">
<path d="M135.555 96.9767C142.526 84.9125 154.335 75.2014 155.776 60.0427C148.366 71.5579 127.043 79.0993 133.875 95.9937C133.875 95.9937 135.473 97.5175 135.555 96.9767ZM125.902 89.9123C113.44 77.7197 120.378 58.9326 129.933 48.8122C127.461 62.7354 123.249 76.8917 127.237 90.8568C127.46 91.4141 125.922 89.9233 125.922 89.9233L125.902 89.9123ZM117.395 84.605C105.127 74.7129 109.944 60.153 108.854 47.6432C113.824 55.7036 114.078 64.996 114.311 74.2774C114.531 77.9175 115.289 82.1616 118.184 84.9153C118.424 85.3545 117.395 84.605 117.395 84.605ZM110.847 81.0987C98.7488 69.4909 96.2964 53.1404 93.5498 37.6464C92.9818 34.5526 92.428 31.5685 91.744 28.7162C93.0133 31.5109 94.1553 34.388 95.3001 37.3941C101.002 51.9276 104.763 66.4554 111.491 81.0741C111.684 81.4612 110.835 81.1179 110.835 81.1179L110.847 81.0987ZM105.172 77.8478C94.9347 67.2724 86.3687 54.9731 82.3071 41.2222C81.2923 38.0843 80.1956 34.7735 79.1328 31.4051C78.1916 28.2316 77.2928 25.0307 76.3403 21.8764C77.963 24.9182 79.5263 27.927 81.0669 30.9743C82.7885 34.2495 84.3462 37.3572 85.884 40.4539C92.9006 52.5306 98.4778 65.848 105.989 78.3777C106.145 78.6935 105.172 77.8478 105.172 77.8478ZM99.8481 74.8935C88.3695 64.0626 77.9682 52.9627 70.7793 39.7962C69.0831 36.79 67.4802 33.7592 65.9424 30.6625C64.4046 27.5658 62.9289 24.4526 61.5184 21.2736C63.9384 23.9421 66.2426 26.6738 68.3997 29.4769C70.5766 32.2909 72.6686 35.1598 74.6759 38.0836C82.7442 50.693 90.7052 63.3957 100.914 75.7144C101.072 75.9807 99.8199 74.8523 99.8199 74.8523L99.8481 74.8935ZM93.1896 71.5299C83.7719 64.2899 74.1081 57.4232 66.7123 48.0422C64.3375 45.2968 62.0786 42.4882 59.9159 39.6056C55.6102 33.8512 51.7399 27.8032 48.3306 21.5521C53.7872 26.4666 59.0063 31.6061 64.0303 36.9432C66.5521 39.6173 69.0005 42.327 71.4545 45.1164C79.0002 54.1982 86.7409 63.2608 94.5665 72.447C94.7842 72.7462 93.1981 71.5601 93.1981 71.5601L93.1896 71.5299ZM81.6172 65.1846C75.4705 61.2638 69.4907 57.6396 63.327 54.0153C60.6015 52.2224 57.8901 50.3609 55.2409 48.4829C47.2848 42.8188 39.7105 36.7292 32.6169 30.0906C41.8539 35.3184 50.4603 41.216 58.7868 47.366C61.7159 49.5268 64.5941 51.6848 67.3026 53.7741C72.239 58.6803 79.33 62.5133 85.3804 67.4003C85.8102 67.7408 81.5946 65.223 81.5946 65.223L81.6172 65.1846ZM84.2212 66.7826C77.5372 63.6853 70.8531 61.4802 63.3322 58.7342C60.1372 57.4711 56.8545 56.1339 53.5352 54.7252C43.9841 50.6998 34.5039 46.3312 25.2385 41.5975C35.3666 43.394 44.7621 47.1037 53.8777 51.4228C56.9397 52.8671 59.9368 54.3773 62.9423 55.9177C69.9288 59.2593 75.8775 62.8918 82.652 65.8353C84.0346 66.6535 84.2212 66.7826 84.2212 66.7826ZM88.1116 69.8081C81.7385 67.5207 73.963 65.1179 66.6652 64.1782C63.2948 63.4806 59.9019 62.8214 56.2912 62.0414C46.4854 60.1434 36.8041 58.0341 27.4397 54.3161C34.5511 53.6992 41.5718 54.3067 48.4568 55.68C51.9091 56.3721 55.4802 57.3086 59.0428 58.3934C69.7306 61.2907 80.7151 66.3155 91.2585 70.6622C91.5865 70.8188 88.8552 70.0169 88.1031 69.778L88.1116 69.8081ZM97.5664 74.2646C82.2099 74.7927 66.4409 72.0074 50.8442 71.561C47.2052 71.2751 43.5577 70.959 39.8819 70.6018C36.2259 70.2555 32.5615 69.879 28.8574 69.4805C36.048 68.1938 43.2951 67.7032 50.5619 67.7589C54.1953 67.7868 58.0012 68.0123 61.7222 68.2927C73.5865 69.1917 85.3743 71.7816 97.131 74.023C97.4222 74.1081 97.9283 74.3634 97.5862 74.2756L97.5664 74.2646ZM102.656 76.8593C86.9285 79.2212 70.6868 81.4759 54.6544 83.6429C50.905 84.2135 47.1075 84.7319 43.3242 85.1817C39.5098 85.6397 35.6784 86.0373 31.8498 86.3855C35.3081 85.0161 38.8285 83.8086 42.4055 82.6835C45.991 81.5885 49.6019 80.5842 53.2665 79.7116C68.9287 75.9882 85.6085 75.3531 102.186 76.4969C102.551 76.5463 102.678 76.8209 102.678 76.8209L102.656 76.8593ZM108.443 79.918C90.0186 82.8479 74.8336 91.9602 57.39 96.3011C54.0844 97.3219 50.6432 98.2165 47.2557 98.8859C50.2531 97.3627 53.3353 95.7846 56.3893 94.1653C72.4478 86.9143 88.676 79.0182 107.889 79.4321C108.285 79.4733 108.435 79.8878 108.435 79.8878L108.443 79.918ZM115.557 84.0695C96.3177 89.0965 81.958 101.445 64.0021 109.555C77.7256 97.6182 92.9084 82.8454 114.958 83.482C115.464 83.5589 115.557 84.0695 115.557 84.0695ZM122.164 88.3225C104.027 98.1674 93.2949 114.747 77.2075 127.31C88.9945 111.927 97.5478 88.3006 122.156 87.9354C122.286 88.1605 122.184 88.3335 122.184 88.3335L122.164 88.3225ZM130.771 94.3984C121.789 110.012 115.037 126.787 100.279 137.538C109.702 122.781 110.612 101.388 128.724 93.0586C129.49 92.872 130.771 94.3984 130.771 94.3984Z" fill="white"/>
</mask>
<g mask="url(#mask1_4_5777)">
<path d="M188.903 69.6824C161.779 92.92 136.048 116.6 118.064 146.745C114.255 151.208 110.822 154.988 107.934 158.153C102.16 164.483 98.543 168.441 98.543 168.441C98.543 168.441 21.321 107.693 -9.59261 83.4004C-17.3111 77.3327 -22.1373 73.5329 -22.1373 73.5329C-22.1373 73.5329 -18.5204 69.5748 -12.7458 63.245C-9.83874 60.0912 -6.41697 56.3307 -2.59647 52.2051C10.539 38.9474 23.9744 24.3776 36.6888 9.91743C40.9363 5.11112 45.0311 0.47499 48.7244 -3.9251C60.1181 -16.3649 68.2653 -25.2529 68.2653 -25.2529C68.2653 -25.2529 87.5814 -10.0728 110.745 8.16035C113.638 10.4282 116.575 12.7976 119.567 15.1203C122.609 17.8026 125.673 20.4466 128.721 23.0301C131.752 25.7317 134.8 28.3152 137.859 30.8795C150.11 41.0681 162.349 50.9191 175.999 60.0235C183.941 65.9347 188.903 69.6824 188.903 69.6824Z" fill="#497D71"/>
</g>
</svg>
